<?xml version="1.0" encoding="utf-8"?>
<!-- Generator: Adobe Illustrator 16.0.2, SVG Export Plug-In . SVG Version: 6.00 Build 0)  -->
<!DOCTYPE svg PUBLIC "-//W3C//DTD SVG 1.0//EN" "http://www.w3.org/TR/2001/REC-SVG-20010904/DTD/svg10.dtd">
<svg version="1.0" id="Layer_1" xmlns="http://www.w3.org/2000/svg" xmlns:xlink="http://www.w3.org/1999/xlink" x="0px" y="0px"
	 width="56.521px" height="98.455px" viewBox="0 0 56.521 98.455" enable-background="new 0 0 56.521 98.455" xml:space="preserve">
<path fill-rule="evenodd" clip-rule="evenodd" fill="#A5AEC7" d="M28.963,18.317L28.951,7.978c0-1.403,0.087-1.963,0.472-2.348
	c1.405-1.218,3.381-2.349,6.102-2.349c8.936,0,12.217,5.928,12.217,13.161c0,6.761-3.938,11.271-9.395,11.271
	c-3.319,0-6.09-1.118-7.743-3.429l1.491,4.635c0.213,0.075,0.424,0.149,0.61,0.211c1.229,0.385,3.479,0.958,5.169,0.958
	c9.867,0,17.858-6.313,17.858-15.521C55.732,6.288,48.96,0,39.751,0c-5.618,0-14.155,4.387-20.146,5.915
	c-0.385,0.099-0.534,0.274-0.473,0.559c0.175,0.845,2.113,1.815,2.212,3.592c0.397,6.475,0.572,14.044,0.572,19.063
	c0,8.749-0.212,48.207-0.473,52.904c-0.012,0.285,0.187,0.473,0.473,0.473h7.319c0.187,0,0.51-0.188,0.46-0.473
	C29.175,78.455,28.976,25.39,28.963,18.317"/>
<path fill-rule="evenodd" clip-rule="evenodd" fill="#A5AEC7" d="M26.329,58.459c4.039-2.996,20.741-14.529,20.891-14.628
	c1.082-0.758,1.354-0.858,2.275-1.331c0.234-0.161,0.422-0.372,0.185-0.558l-4.696-3.417c-0.236-0.187-0.473-0.187-0.66,0.023
	c-2.944,2.672-16.217,12.218-21.45,15.884c-7.17,5.02-17.411,12.016-21.375,14.539c-0.235,0.163-0.313,0.386-0.186,0.559
	l3.155,4.499c0.075,0.112,0.374,0.213,0.585,0.025C7.763,71.682,20.625,62.697,26.329,58.459"/>
<path fill-rule="evenodd" clip-rule="evenodd" fill="#A5AEC7" d="M24.75,58.459C20.699,55.451,3.996,43.919,3.836,43.818
	c-1.07-0.757-1.342-0.857-2.275-1.328c-0.225-0.164-0.423-0.374-0.187-0.56l4.699-3.418c0.235-0.186,0.471-0.186,0.658,0.025
	C9.688,41.209,22.96,50.754,28.181,54.42c7.169,5.02,17.412,12.018,21.387,14.538c0.224,0.162,0.299,0.388,0.174,0.56l-3.145,4.5
	c-0.087,0.112-0.385,0.212-0.583,0.024C43.306,71.668,30.442,62.683,24.75,58.459"/>
<g>
	<path fill="#A5AEC7" d="M0.331,87.499c0.05-0.116,0.106-0.237,0.169-0.363c0.032-0.067,0.067-0.13,0.102-0.188
		c0.034-0.057,0.072-0.117,0.113-0.182c0.04-0.056,0.079-0.114,0.12-0.174s0.084-0.116,0.132-0.169
		c0.26-0.354,0.576-0.671,0.949-0.952s0.8-0.521,1.282-0.72c0.477-0.21,1.008-0.306,1.593-0.286c0.586,0.019,1.22,0.146,1.909,0.384
		c0.678,0.233,1.27,0.547,1.775,0.942c0.504,0.396,0.917,0.871,1.238,1.426c0.331,0.558,0.524,1.148,0.581,1.774
		c0.055,0.625-0.025,1.295-0.241,2.009c-0.019,0.053-0.04,0.105-0.061,0.157c-0.023,0.051-0.043,0.103-0.063,0.155
		c-0.031,0.059-0.056,0.114-0.079,0.166c-0.022,0.05-0.048,0.101-0.074,0.151c-0.049,0.111-0.105,0.218-0.169,0.319
		c-0.064,0.101-0.133,0.201-0.208,0.305c-0.271,0.381-0.593,0.722-0.974,1.024c-0.381,0.304-0.814,0.563-1.303,0.779
		c-0.492,0.226-1.016,0.335-1.571,0.331c-0.556-0.003-1.151-0.115-1.786-0.334c-0.812-0.278-1.488-0.63-2.033-1.054
		c-0.543-0.424-0.953-0.925-1.227-1.503c-0.274-0.577-0.438-1.17-0.488-1.779c-0.052-0.609,0.006-1.234,0.179-1.876l0.008-0.025
		C0.239,87.721,0.28,87.614,0.331,87.499z M1.677,89.818c0.031,0.483,0.165,0.953,0.401,1.409c0.24,0.447,0.53,0.823,0.869,1.128
		c0.338,0.304,0.729,0.532,1.168,0.683c0.468,0.161,0.92,0.223,1.357,0.187c0.437-0.037,0.855-0.179,1.254-0.426
		c0.4-0.246,0.74-0.537,1.018-0.87c0.276-0.333,0.49-0.716,0.639-1.147c0.002-0.008,0.006-0.018,0.008-0.027
		c0.004-0.008,0.006-0.017,0.01-0.025c0.002-0.009,0.005-0.018,0.008-0.026c0.003-0.009,0.006-0.018,0.008-0.026
		c0.004-0.009,0.006-0.018,0.011-0.026c0.002-0.009,0.006-0.018,0.008-0.026c0.004-0.009,0.006-0.019,0.009-0.026
		c0.003-0.01,0.006-0.019,0.009-0.027c0.002-0.009,0.006-0.017,0.008-0.026c0.004-0.008,0.008-0.021,0.015-0.039
		c-0.006-0.012-0.008-0.022-0.004-0.031c0.002-0.009,0.006-0.017,0.008-0.026c0.003-0.008,0.006-0.018,0.009-0.026
		c0.004-0.009,0.008-0.022,0.014-0.039C8.5,90.368,8.5,90.355,8.504,90.343c0.004-0.015,0.008-0.025,0.01-0.033
		c0.094-0.441,0.121-0.886,0.083-1.333c-0.038-0.446-0.148-0.898-0.325-1.354c-0.179-0.456-0.433-0.84-0.766-1.151
		c-0.331-0.311-0.743-0.552-1.236-0.722c-0.01-0.002-0.021-0.007-0.033-0.011c-0.015-0.005-0.025-0.008-0.033-0.013
		c-0.019-0.005-0.031-0.01-0.04-0.013c-0.008-0.004-0.023-0.008-0.04-0.014c-0.011-0.004-0.021-0.007-0.033-0.011
		c-0.015-0.005-0.025-0.01-0.034-0.013c-0.021,0.003-0.035,0.003-0.043,0c-0.01-0.003-0.019-0.006-0.027-0.009
		c-0.364-0.087-0.741-0.104-1.128-0.056c-0.385,0.049-0.773,0.164-1.162,0.347c-0.395,0.179-0.737,0.446-1.021,0.801
		c-0.285,0.356-0.518,0.798-0.701,1.327c-0.002,0.008-0.006,0.017-0.008,0.025c-0.004,0.01-0.006,0.018-0.011,0.026
		c-0.002,0.01-0.006,0.019-0.008,0.027c-0.003,0.008-0.006,0.019-0.008,0.026c-0.004,0.009-0.008,0.02-0.012,0.033
		c-0.004,0.013-0.008,0.023-0.011,0.033c-0.004,0.009-0.006,0.018-0.01,0.025c-0.002,0.01-0.006,0.019-0.008,0.027l0.008-0.027
		C1.723,88.823,1.646,89.333,1.677,89.818z"/>
</g>
<g>
	<path fill="#A5AEC7" d="M11.2,89.309c0.012-0.126,0.004-0.231-0.023-0.315c-0.018-0.081-0.04-0.156-0.065-0.226
		c-0.027-0.069-0.057-0.127-0.094-0.175c-0.007-0.011-0.016-0.023-0.027-0.036c-0.013-0.011-0.025-0.024-0.042-0.038
		c-0.006-0.012-0.016-0.023-0.027-0.035c-0.01-0.013-0.019-0.025-0.027-0.036c-0.006-0.011-0.016-0.021-0.028-0.028
		c-0.012-0.009-0.021-0.019-0.029-0.029s-0.014-0.022-0.02-0.033c-0.007-0.012-0.015-0.023-0.021-0.034
		c0.069,0.026,0.143,0.055,0.216,0.083c0.075,0.028,0.147,0.056,0.217,0.082c0.07,0.028,0.144,0.05,0.221,0.069
		c0.076,0.019,0.146,0.037,0.211,0.053c0.099,0.024,0.191,0.047,0.279,0.063s0.177,0.032,0.271,0.045
		c0.085,0.003,0.17,0.005,0.257,0.007s0.174-0.004,0.264-0.021l-0.95,3.812c-0.066,0.263-0.085,0.505-0.06,0.728
		c0.026,0.223,0.095,0.421,0.206,0.592c0.12,0.174,0.255,0.317,0.403,0.433c0.15,0.114,0.32,0.194,0.51,0.242
		c0.162,0.04,0.33,0.053,0.501,0.038c0.172-0.015,0.344-0.063,0.519-0.145c0.181-0.07,0.34-0.181,0.48-0.335
		c0.138-0.152,0.264-0.338,0.377-0.561l0.7-2.809c0.043-0.172,0.066-0.324,0.071-0.458c0.004-0.133-0.006-0.246-0.031-0.339
		c-0.035-0.085-0.077-0.171-0.123-0.254c-0.048-0.084-0.1-0.162-0.158-0.234c0.042,0.021,0.087,0.041,0.135,0.063
		c0.047,0.022,0.098,0.04,0.152,0.054c0.052,0.021,0.105,0.042,0.158,0.06c0.053,0.019,0.111,0.034,0.175,0.052
		c0.008,0.002,0.021,0.004,0.033,0.008c0.015,0.003,0.025,0.006,0.035,0.009c0.009,0.002,0.016,0.004,0.02,0.005
		c0.005,0.001,0.013,0.002,0.021,0.005c0.008,0.002,0.019,0.004,0.027,0.007c0.1,0.024,0.198,0.048,0.293,0.066
		c0.097,0.019,0.19,0.035,0.283,0.049c0.104,0.006,0.194,0.009,0.272,0.009c0.076,0,0.15-0.009,0.223-0.029l-1.271,5.102
		c-0.056,0.226-0.086,0.415-0.092,0.566c-0.004,0.153,0.016,0.278,0.059,0.376c0.052,0.099,0.106,0.189,0.163,0.271
		c0.056,0.081,0.12,0.155,0.19,0.221l0.013,0.003l-1.925-0.479l0.239-0.964c-0.083,0.18-0.198,0.328-0.341,0.441
		c-0.143,0.112-0.317,0.196-0.522,0.251c-0.202,0.036-0.41,0.054-0.626,0.053c-0.216-0.001-0.437-0.03-0.663-0.086
		c-0.028-0.008-0.052-0.014-0.075-0.02c-0.022-0.005-0.042-0.01-0.061-0.016c-0.008-0.002-0.018-0.004-0.027-0.006
		c-0.008-0.002-0.019-0.004-0.027-0.006c-0.016-0.014-0.028-0.022-0.038-0.024c-0.008-0.002-0.019-0.004-0.027-0.006
		c-0.256-0.093-0.494-0.216-0.716-0.366c-0.221-0.151-0.419-0.341-0.593-0.565c-0.175-0.227-0.285-0.484-0.333-0.775
		s-0.035-0.619,0.037-0.985l0.75-3.012C11.162,89.581,11.187,89.436,11.2,89.309z"/>
</g>
<g>
	<path fill="#A5AEC7" d="M18.166,90.957c0.021-0.147,0.03-0.28,0.027-0.399c-0.002-0.117-0.016-0.221-0.041-0.309
		c-0.025-0.089-0.058-0.173-0.099-0.253c-0.041-0.082-0.089-0.159-0.144-0.233c-0.009-0.001-0.015-0.004-0.02-0.009
		c-0.004-0.006-0.006-0.013-0.004-0.022c-0.009-0.001-0.015-0.004-0.019-0.009c-0.005-0.007-0.01-0.014-0.019-0.024
		s-0.015-0.019-0.019-0.023c-0.004-0.006-0.004-0.013-0.003-0.022c-0.007-0.01-0.014-0.019-0.018-0.023
		c-0.004-0.006-0.011-0.013-0.019-0.023c0.019,0.002,0.038,0.006,0.056,0.008c0.019,0.003,0.038,0.005,0.055,0.008
		c0.019,0.002,0.037,0.006,0.055,0.008c0.019,0.003,0.038,0.005,0.056,0.008c0.019,0.002,0.034,0.006,0.048,0.007
		c0.015,0.002,0.025,0.004,0.036,0.005c0.017,0.012,0.031,0.019,0.046,0.021c0.013,0.002,0.025,0.003,0.034,0.004
		c0.019,0.004,0.034,0.006,0.049,0.008c0.014,0.002,0.029,0.004,0.048,0.006c0.009,0.002,0.023,0.004,0.042,0.007
		c0.019,0.003,0.034,0.004,0.042,0.006c0.019,0.002,0.04,0.005,0.063,0.009c0.022,0.003,0.048,0.007,0.077,0.01
		c0.017,0.013,0.037,0.021,0.06,0.023s0.043,0.006,0.063,0.009c0.018,0.002,0.038,0.006,0.061,0.009
		c0.024,0.003,0.049,0.007,0.077,0.01c0.019,0.004,0.04,0.007,0.063,0.01s0.043,0.006,0.063,0.009
		c0.091,0.013,0.178,0.022,0.257,0.028c0.079,0.007,0.151,0.01,0.217,0.01c0.075,0.001,0.138-0.004,0.186-0.017
		c0.049-0.012,0.089-0.029,0.121-0.053l-0.134,0.955c0.103-0.127,0.217-0.238,0.344-0.333c0.126-0.096,0.265-0.175,0.414-0.238
		c0.141-0.064,0.289-0.108,0.441-0.129c0.154-0.021,0.309-0.021,0.466,0.002c0.019,0.003,0.038,0.006,0.062,0.009
		c0.023,0.004,0.048,0.012,0.075,0.024c0.017,0.003,0.038,0.008,0.06,0.017c0.023,0.007,0.043,0.013,0.061,0.015
		c0.046,0.017,0.09,0.03,0.136,0.04c0.046,0.012,0.091,0.025,0.136,0.041l-0.18,1.273c-0.023-0.04-0.055-0.078-0.097-0.112
		c-0.042-0.034-0.089-0.069-0.141-0.104c-0.061-0.037-0.123-0.066-0.184-0.089c-0.063-0.024-0.131-0.041-0.205-0.051
		c-0.008-0.001-0.021-0.004-0.035-0.006c-0.013-0.002-0.03-0.004-0.049-0.006c-0.01,0.008-0.023,0.011-0.035,0.008
		c-0.015-0.001-0.031-0.004-0.049-0.006c-0.029,0.005-0.059,0.009-0.086,0.01c-0.028,0.001-0.056-0.001-0.084-0.006
		c-0.144,0.018-0.284,0.064-0.421,0.139c-0.137,0.075-0.272,0.179-0.404,0.312c-0.131,0.131-0.24,0.305-0.327,0.518
		c-0.087,0.215-0.152,0.474-0.194,0.778c-0.003,0.018-0.005,0.036-0.007,0.056c-0.003,0.018-0.006,0.036-0.008,0.055
		c-0.001,0.01-0.003,0.023-0.006,0.042c-0.001,0.009-0.002,0.019-0.004,0.026c0,0.01-0.002,0.02-0.003,0.028l-0.288,2.049
		c-0.021,0.147-0.026,0.288-0.017,0.422c0.009,0.133,0.033,0.267,0.07,0.404c0.038,0.129,0.093,0.241,0.164,0.342
		c0.071,0.099,0.159,0.175,0.264,0.228l-2.617-0.368l0.015,0.002c0.008,0.001,0.018,0.003,0.027,0.004
		c0.029-0.005,0.059-0.016,0.09-0.03c0.03-0.015,0.065-0.033,0.106-0.055c0.03-0.016,0.063-0.039,0.095-0.072
		c0.033-0.033,0.065-0.065,0.099-0.099c0.066-0.065,0.123-0.141,0.173-0.223c0.048-0.083,0.094-0.169,0.134-0.257
		c0.001-0.009,0.003-0.019,0.004-0.027c0.001-0.009,0.007-0.018,0.018-0.026c0.001-0.009,0.003-0.021,0.004-0.034
		c0.002-0.015,0.004-0.025,0.006-0.035c0-0.008,0.002-0.018,0.003-0.027c0.001-0.009,0.008-0.022,0.02-0.039
		c0.002-0.01,0.002-0.019,0.004-0.028c0.001-0.009,0.002-0.018,0.004-0.027l0.004-0.027L18.166,90.957z"/>
</g>
<g>
	<path fill="#A5AEC7" d="M25.605,89.375c-0.002-0.038-0.003-0.077-0.004-0.12c-0.002-0.04-0.003-0.085-0.005-0.132
		c0-0.019-0.001-0.04-0.002-0.063s-0.002-0.05-0.002-0.077c-0.01-0.019-0.016-0.039-0.017-0.063
		c-0.001-0.022-0.002-0.05-0.003-0.077c-0.013-0.102-0.032-0.201-0.06-0.299c-0.026-0.098-0.064-0.19-0.114-0.282
		c-0.041-0.102-0.096-0.192-0.164-0.275c-0.068-0.081-0.15-0.156-0.246-0.229l2.64-0.118c-0.109,0.076-0.202,0.167-0.276,0.268
		c-0.077,0.101-0.141,0.217-0.191,0.35c-0.051,0.141-0.087,0.294-0.11,0.458c-0.022,0.165-0.03,0.34-0.024,0.524l0.072,2.056
		l5.059-0.177l-0.077-2.193c0-0.019-0.001-0.037-0.003-0.056c-0.009-0.01-0.014-0.021-0.014-0.035
		c-0.002-0.014-0.002-0.025-0.002-0.034c0-0.02-0.002-0.036-0.002-0.05s0-0.025,0-0.035c-0.011-0.019-0.016-0.035-0.016-0.048
		c0-0.015-0.002-0.026-0.002-0.035c-0.014-0.112-0.043-0.223-0.088-0.333c-0.046-0.11-0.1-0.214-0.158-0.316
		c-0.068-0.1-0.146-0.188-0.233-0.264c-0.086-0.077-0.187-0.136-0.3-0.18l2.863-0.127c-0.008,0.019-0.016,0.036-0.02,0.049
		c-0.004,0.015-0.006,0.026-0.005,0.036c-0.009,0.009-0.017,0.017-0.021,0.021c-0.004,0.004-0.012,0.013-0.02,0.021
		c-0.01,0.011-0.021,0.023-0.035,0.038s-0.029,0.031-0.047,0.05c-0.01,0.01-0.018,0.019-0.027,0.029
		c-0.009,0.01-0.018,0.019-0.026,0.028s-0.019,0.02-0.027,0.029c-0.009,0.009-0.018,0.019-0.026,0.029
		c-0.045,0.057-0.087,0.119-0.127,0.186s-0.08,0.144-0.125,0.228c-0.033,0.085-0.061,0.189-0.08,0.312
		c-0.018,0.121-0.025,0.266-0.02,0.435l0.223,6.357c0.006,0.177,0.02,0.328,0.043,0.454c0.023,0.124,0.055,0.232,0.096,0.324
		s0.102,0.181,0.184,0.267c0.082,0.085,0.186,0.164,0.31,0.235c0.01,0.008,0.017,0.012,0.021,0.012c0.006,0,0.014,0,0.022,0
		c0.009-0.001,0.019-0.001,0.028-0.002l-2.754,0.097c0.102-0.032,0.189-0.076,0.262-0.135s0.13-0.13,0.174-0.216
		c0.043-0.086,0.081-0.174,0.109-0.263c0.029-0.091,0.047-0.183,0.054-0.275c-0.001-0.019-0.001-0.032-0.001-0.042
		c-0.001-0.009,0.003-0.023,0.012-0.042c0-0.01-0.002-0.021-0.002-0.035c0-0.014,0-0.025,0-0.034
		c-0.002-0.02-0.002-0.036-0.002-0.049c0-0.015,0.004-0.026,0.014-0.036c-0.002-0.019-0.003-0.035-0.003-0.049
		c-0.001-0.014-0.001-0.025-0.001-0.034l-0.112-3.215l-5.059,0.177l0.108,3.088c0.005,0.15,0.024,0.286,0.056,0.411
		c0.032,0.124,0.078,0.241,0.139,0.352c0.06,0.109,0.131,0.209,0.214,0.301c0.082,0.09,0.18,0.167,0.294,0.227l-2.753,0.098
		c0.11-0.041,0.206-0.107,0.287-0.199c0.08-0.092,0.147-0.198,0.199-0.322c0.051-0.133,0.088-0.263,0.112-0.39
		c0.023-0.125,0.033-0.259,0.027-0.399l-0.001-0.027L25.605,89.375z"/>
</g>
<g>
	<path fill="#A5AEC7" d="M34.688,93.137c-0.004-0.093-0.004-0.192,0-0.296c0.004-0.104,0.015-0.211,0.033-0.321
		c0.017-0.11,0.037-0.221,0.061-0.327c0.063-0.282,0.17-0.56,0.319-0.836c0.149-0.275,0.343-0.547,0.577-0.815
		c0.235-0.268,0.534-0.485,0.896-0.654c0.361-0.169,0.783-0.287,1.263-0.354c0.009-0.001,0.019-0.004,0.028-0.004
		c0.008-0.002,0.018-0.003,0.027-0.004c0.018-0.003,0.033-0.004,0.041-0.006c0.02-0.002,0.037-0.006,0.055-0.009
		c0.02-0.002,0.038-0.004,0.056-0.007c0.056-0.008,0.111-0.014,0.167-0.017c0.057-0.003,0.113-0.003,0.17-0.002s0.113,0,0.169-0.004
		c0.056-0.003,0.112-0.004,0.169-0.002c0.332,0.019,0.658,0.094,0.978,0.223s0.636,0.309,0.95,0.537
		c0.305,0.221,0.551,0.5,0.738,0.835c0.189,0.337,0.313,0.721,0.375,1.154c0.001,0.01,0.002,0.019,0.003,0.027
		c0.002,0.01,0.003,0.019,0.005,0.028c0.002,0.009,0.002,0.017,0.002,0.021c0.002,0.005,0.002,0.012,0.004,0.021
		c0,0.01,0.002,0.02,0.004,0.028c0.001,0.009,0.002,0.018,0.003,0.027c0.001,0.009,0.003,0.017,0.003,0.021
		c0.002,0.005,0.002,0.013,0.004,0.021c0,0.01,0.002,0.021,0.005,0.036c0.002,0.013,0.003,0.024,0.004,0.033
		c0.003,0.019,0.005,0.033,0.007,0.041c0,0.011,0.002,0.024,0.006,0.042c0.001,0.01,0.002,0.021,0.004,0.035
		c0.002,0.014,0.004,0.025,0.006,0.034c-0.007,0.021-0.01,0.035-0.008,0.043c0.001,0.011,0.002,0.019,0.003,0.029
		c0.019,0.394-0.032,0.776-0.148,1.149c-0.116,0.374-0.301,0.744-0.55,1.108c-0.252,0.355-0.58,0.642-0.988,0.859
		c-0.406,0.217-0.892,0.364-1.455,0.443c-0.563,0.079-1.07,0.07-1.521-0.025c-0.451-0.097-0.837-0.282-1.158-0.558
		c-0.331-0.283-0.598-0.589-0.799-0.918c-0.202-0.328-0.344-0.687-0.426-1.069c-0.013-0.018-0.02-0.037-0.023-0.061
		c-0.002-0.022-0.007-0.049-0.011-0.076c-0.003-0.019-0.005-0.031-0.005-0.042c-0.002-0.009-0.004-0.023-0.007-0.042
		c-0.001-0.008-0.003-0.02-0.004-0.033c-0.003-0.015-0.005-0.025-0.005-0.035l-0.005-0.027
		C34.698,93.315,34.692,93.231,34.688,93.137z M36.455,94.103c0.149,0.289,0.332,0.537,0.548,0.742
		c0.218,0.205,0.463,0.345,0.737,0.419c0.273,0.074,0.573,0.089,0.896,0.044c0.369-0.052,0.679-0.158,0.93-0.314
		c0.252-0.158,0.448-0.364,0.591-0.62c0.133-0.263,0.224-0.532,0.274-0.808c0.051-0.276,0.055-0.557,0.016-0.843
		c-0.001-0.008-0.003-0.019-0.004-0.026c-0.001-0.011-0.002-0.019-0.004-0.029c-0.002-0.009-0.002-0.02-0.004-0.033
		c-0.003-0.015-0.005-0.025-0.006-0.035c-0.051-0.294-0.144-0.57-0.279-0.829c-0.135-0.259-0.307-0.5-0.518-0.725
		c-0.211-0.226-0.447-0.382-0.709-0.473s-0.555-0.117-0.88-0.08c-0.009,0-0.016,0.002-0.021,0.002c-0.004,0-0.012,0.002-0.02,0.002
		c-0.01,0.002-0.018,0.004-0.022,0.005c-0.005,0-0.011,0.001-0.021,0.002c-0.064,0.01-0.131,0.021-0.2,0.035
		c-0.067,0.015-0.143,0.037-0.223,0.066c-0.036,0.015-0.075,0.03-0.12,0.046c-0.047,0.016-0.086,0.03-0.121,0.045
		c-0.044,0.025-0.086,0.047-0.125,0.067c-0.039,0.019-0.081,0.042-0.125,0.066c-0.139,0.086-0.271,0.196-0.398,0.331
		c-0.127,0.136-0.243,0.291-0.351,0.466c-0.106,0.184-0.175,0.4-0.206,0.644c-0.031,0.245-0.025,0.523,0.02,0.838l-0.004-0.028
		C36.19,93.473,36.306,93.814,36.455,94.103z"/>
</g>
<g>
	<path fill="#A5AEC7" d="M42.068,90.731c-0.002-0.01-0.005-0.02-0.009-0.034c-0.004-0.013-0.008-0.024-0.01-0.033
		c-0.006-0.018-0.01-0.035-0.016-0.055c-0.006-0.017-0.006-0.036-0.002-0.057c-0.006-0.018-0.011-0.035-0.016-0.054
		c-0.004-0.019-0.01-0.036-0.015-0.054s-0.011-0.035-0.016-0.054c-0.005-0.018-0.011-0.036-0.016-0.054
		c-0.028-0.099-0.066-0.196-0.114-0.294c-0.047-0.098-0.098-0.192-0.153-0.284c-0.064-0.089-0.144-0.159-0.235-0.216
		c-0.094-0.056-0.209-0.098-0.344-0.128c0.027-0.007,0.059-0.017,0.094-0.025c0.036-0.011,0.072-0.021,0.107-0.031
		c0.035-0.011,0.072-0.021,0.109-0.031c0.035-0.011,0.07-0.021,0.106-0.031c0.009-0.002,0.019-0.002,0.029,0
		c0.009,0.002,0.02,0.001,0.028-0.001c0.019-0.006,0.031-0.01,0.04-0.012c0.019-0.005,0.036-0.011,0.054-0.016
		s0.036-0.011,0.054-0.016c0.019-0.005,0.038-0.011,0.062-0.018c0.021-0.006,0.041-0.012,0.061-0.017
		c0.018-0.005,0.037-0.012,0.061-0.018c0.021-0.007,0.047-0.014,0.073-0.021c0.116-0.033,0.223-0.068,0.318-0.105
		c0.097-0.038,0.188-0.073,0.274-0.108c0.084-0.044,0.15-0.086,0.195-0.128c0.047-0.043,0.068-0.088,0.064-0.136l0.266,0.928
		c0.08-0.158,0.187-0.315,0.316-0.469c0.131-0.153,0.282-0.3,0.457-0.437c0.182-0.14,0.377-0.264,0.584-0.371
		c0.205-0.107,0.421-0.194,0.646-0.258c0.018-0.006,0.035-0.01,0.054-0.016c0.017-0.005,0.035-0.01,0.054-0.016
		c0.008-0.002,0.017-0.005,0.026-0.008c0.009-0.002,0.021-0.007,0.04-0.012c0.012,0.006,0.024,0.009,0.037,0.004
		c0.014-0.004,0.024-0.007,0.034-0.009c0.339-0.069,0.683-0.079,1.03-0.033c0.348,0.045,0.695,0.149,1.042,0.311
		c0.358,0.169,0.675,0.433,0.947,0.79c0.271,0.358,0.505,0.811,0.701,1.355c0.002,0.01,0.007,0.023,0.011,0.041
		c0.003,0.008,0.006,0.018,0.008,0.026c0.004,0.009,0.006,0.019,0.008,0.027c0.003,0.009,0.007,0.021,0.012,0.04
		c0.004,0.009,0.006,0.019,0.008,0.026c0.003,0.01,0.005,0.018,0.008,0.027c0.084,0.394,0.104,0.792,0.06,1.196
		c-0.045,0.406-0.153,0.809-0.331,1.208c-0.184,0.403-0.443,0.736-0.773,1c-0.332,0.266-0.734,0.47-1.207,0.615
		c-0.089,0.026-0.176,0.049-0.263,0.068s-0.177,0.033-0.271,0.042c-0.093,0.017-0.189,0.027-0.289,0.032
		c-0.101,0.004-0.204,0.007-0.31,0.008l-1.21-1.02c0.128,0.041,0.259,0.071,0.391,0.092c0.131,0.02,0.267,0.035,0.405,0.044
		c0.135,0,0.27-0.006,0.402-0.015c0.134-0.009,0.264-0.027,0.393-0.055c0.02,0.005,0.039,0.005,0.058-0.002
		c0.017-0.004,0.035-0.009,0.054-0.015c0.018-0.005,0.035-0.01,0.053-0.016c0.019-0.005,0.036-0.01,0.054-0.016
		c0.233-0.066,0.443-0.163,0.63-0.289c0.188-0.127,0.358-0.289,0.515-0.489c0.149-0.188,0.257-0.423,0.323-0.703
		c0.064-0.28,0.078-0.6,0.044-0.958c-0.001-0.039-0.005-0.076-0.011-0.113c-0.006-0.038-0.014-0.074-0.023-0.109
		c-0.006-0.019-0.01-0.036-0.016-0.055c-0.006-0.018-0.008-0.036-0.002-0.057c-0.006-0.019-0.011-0.036-0.016-0.055
		c-0.006-0.018-0.011-0.035-0.016-0.054c-0.002-0.008-0.006-0.018-0.008-0.027c-0.003-0.008-0.005-0.018-0.008-0.026
		c-0.002-0.009-0.004-0.017-0.008-0.026c-0.002-0.01-0.005-0.018-0.007-0.027c-0.089-0.275-0.218-0.526-0.384-0.755
		c-0.169-0.229-0.369-0.43-0.604-0.605c-0.236-0.184-0.489-0.301-0.756-0.351c-0.266-0.049-0.546-0.031-0.842,0.053
		c-0.341,0.098-0.627,0.224-0.859,0.378c-0.232,0.152-0.406,0.33-0.525,0.527c-0.125,0.202-0.189,0.452-0.191,0.753
		c0,0.301,0.055,0.649,0.169,1.043l1.269,4.422c0.059,0.206,0.123,0.391,0.195,0.555c0.07,0.163,0.144,0.308,0.217,0.432
		c0.084,0.122,0.182,0.217,0.294,0.286c0.112,0.071,0.243,0.112,0.394,0.128l-2.648,0.759c0.138-0.097,0.244-0.192,0.317-0.287
		c0.076-0.094,0.122-0.196,0.138-0.308c0.02-0.103,0.029-0.205,0.029-0.308c-0.002-0.101-0.011-0.203-0.029-0.304
		c-0.004-0.009-0.006-0.016-0.006-0.02c-0.002-0.004-0.004-0.013-0.006-0.021c-0.003-0.009-0.005-0.019-0.008-0.027L42.068,90.731z"
		/>
</g>
<g>
	<path fill="#A5AEC7" d="M49.493,89.95c-0.022-0.081-0.047-0.168-0.072-0.258c-0.015-0.084-0.03-0.171-0.046-0.261
		c-0.016-0.089-0.028-0.181-0.038-0.278c-0.016-0.314,0.011-0.629,0.08-0.945c0.068-0.313,0.176-0.637,0.324-0.968
		c0.16-0.324,0.383-0.613,0.669-0.865c0.285-0.25,0.64-0.462,1.063-0.633c0.008-0.004,0.017-0.007,0.025-0.01
		c0.009-0.005,0.018-0.009,0.026-0.011c0.017-0.008,0.03-0.013,0.038-0.017c0.018-0.007,0.035-0.014,0.053-0.021
		c0.018-0.006,0.034-0.013,0.052-0.021c0.405-0.164,0.81-0.254,1.21-0.271c0.4-0.015,0.794,0.044,1.182,0.179
		c0.383,0.127,0.722,0.348,1.02,0.66c0.297,0.313,0.543,0.71,0.738,1.193l-4.807,1.911c0.027,0.071,0.052,0.132,0.072,0.184
		c0.021,0.05,0.047,0.102,0.076,0.149c0.03,0.048,0.062,0.096,0.096,0.142c0.035,0.048,0.066,0.095,0.095,0.144
		c0.147,0.191,0.325,0.366,0.53,0.524c0.203,0.158,0.434,0.291,0.688,0.401c0.255,0.106,0.532,0.16,0.833,0.159
		c0.302-0.001,0.62-0.059,0.955-0.174c0.009-0.004,0.018-0.006,0.026-0.01s0.018-0.008,0.026-0.011
		c0.018-0.007,0.031-0.013,0.039-0.017c0.017-0.006,0.033-0.013,0.053-0.021c0.016-0.007,0.033-0.013,0.051-0.021
		c0.15-0.051,0.311-0.119,0.483-0.202c0.172-0.086,0.345-0.184,0.522-0.296c0.188-0.105,0.361-0.254,0.521-0.443
		c0.158-0.19,0.307-0.418,0.441-0.684l-0.129,1.439c-0.023,0.039-0.054,0.077-0.09,0.112c-0.037,0.033-0.068,0.066-0.096,0.098
		c-0.037,0.035-0.072,0.066-0.105,0.096s-0.068,0.061-0.105,0.096c-0.074,0.04-0.146,0.085-0.214,0.14
		c-0.069,0.052-0.14,0.104-0.21,0.151c-0.031,0.023-0.068,0.046-0.109,0.067c-0.042,0.022-0.078,0.044-0.108,0.066
		c-0.04,0.025-0.079,0.05-0.116,0.069s-0.075,0.043-0.115,0.07c-0.07,0.048-0.143,0.089-0.219,0.124
		c-0.077,0.038-0.154,0.071-0.231,0.103c-0.51,0.206-1.02,0.326-1.528,0.36c-0.509,0.035-1.014-0.021-1.518-0.171
		c-0.501-0.149-0.924-0.373-1.266-0.672c-0.342-0.3-0.604-0.675-0.785-1.124l-0.011-0.025C49.54,90.101,49.517,90.031,49.493,89.95z
		 M54.052,87.159c-0.112-0.177-0.248-0.318-0.406-0.424c-0.158-0.108-0.336-0.182-0.534-0.223c-0.196-0.041-0.393-0.053-0.587-0.033
		c-0.193,0.019-0.382,0.063-0.563,0.137c-0.009,0.002-0.018,0.007-0.026,0.011c-0.009,0.002-0.018,0.006-0.026,0.01
		c-0.008,0.003-0.016,0.007-0.025,0.011c-0.009,0.002-0.018,0.007-0.026,0.011c-0.177,0.081-0.339,0.184-0.485,0.308
		c-0.145,0.125-0.275,0.271-0.389,0.438c-0.114,0.166-0.195,0.343-0.246,0.528c-0.051,0.188-0.066,0.392-0.047,0.614l-0.01-0.025
		L54.052,87.159z"/>
</g>
</svg>
